<svg xmlns="http://www.w3.org/2000/svg" viewBox="156.42 437.1 763.78 205.93">
    <path fill="#171717"
        d="M381.63 437.1c.75.01 2.25.04 3 .05-.05 68.6-.04 137.19 0 205.78-.76.02-2.27.07-3.02.09 0-68.64-.03-137.28.02-205.92zM521.58 487.08c-.17-1.52 1-3.09 2.54-3.22 3.36-.21 6.74-.09 10.11-.11 2.54 7.34 1.32 15.2 1.4 22.79-.26.21-.79.62-1.05.82.22.65.67 1.95.89 2.6.56 15.03-.52 30.1.09 45.13 1.42 12.79.78 25.67 1.13 38.5-4.61 1.18-9.48 1.16-14.17.71-2.77-1.27-2.74-4.82-3.39-7.35-.87-5.82-3.88-11.13-4.03-17.07-.16 1.05-.3 2.1-.43 3.17.17-5.53-1.96-10.71-3.15-16.02-3.97-14.73-7.82-29.52-11.91-44.2-.7 11.37.28 22.77-.08 34.16 1.05 11.31.9 22.68 1.76 34.01-.35 4.11 1.14 8.72-1.06 12.47-2.77 2.71-7.2 1.47-10.7 2.06-.65-.89-1.72-1.54-1.94-2.67-1.41-8.21-.78-16.57-1.13-24.86-.42-10.97.21-21.98-.72-32.93.07-8.35-.97-16.67-.62-25-.8-6.33-.44-12.71-.53-19.07-.09-1.88.37-3.69.96-5.45 5.88-.24 11.78-.17 17.66-.37 2.04 3.78 2.79 8.03 3.68 12.18 3.91 15.17 8.02 30.28 11.87 45.46 1.06 3.64 1.56 7.47 3.28 10.89.67-6.22.19-12.5.29-18.75-.17-7.96.26-15.95-.51-23.88-.23-3.03-.13-6.07.23-9.07-.82-4.93-.61-9.95-.47-14.93zM562.44 484.62c4.49-.79 9.13-.64 13.65-.16 8.68 1.62 15.43 9.78 15.89 18.53.21 3.48 1.45 7.73-1.53 10.37-3.62-1.2-7.38-.17-11.04.17-3.79-3.31-.18-9.11-3.25-12.77-3.46-4.45-11.88-4.19-14.13 1.36-2.87 5.65-.08 11.95 2.74 17 8.75 14.98 20.78 28.22 26.36 44.91 2.52 6.86 1.4 14.43-.83 21.21-1.19.71-2.38 1.45-3.55 2.2.34 3.43-2.76 5.64-5.6 6.72-8.26 3.58-18.46 2.68-25.9-2.4-7.81-6.14-9.32-16.95-8.82-26.27 3.32-1.5 7.04-1.25 10.59-1.28 1.56.12 3.86-.28 4.41 1.71.91 3.74.47 7.7 1.59 11.39 1.71 4.74 8.01 6.14 12.18 3.94 3.37-2.23 3.18-6.74 3.17-10.3-4.54-14.66-14.67-26.62-22.79-39.38-4.26-7.23-8.23-14.98-8.81-23.51-1-10.11 5.61-20.87 15.67-23.44zM602.65 486.93c2.63-2.92 6.82-2.42 10.37-2.45 1.47.13 3.26-.14 4.39 1.09 1.25 2.28.77 4.98.86 7.48-.18 6.98.14 13.95.3 20.92-.37 15.01.38 30.05-.75 45.02.01 11.84-.36 23.68-.14 35.52-2.19 1.28-4.81 1.66-6.85-.13-2.01 2.1-6.12 2.11-8.03-.1-.48-3.73-.39-7.56.37-11.25-1.18-11.61-.18-23.35-.53-35.01-.35-7.37 1.31-14.71.28-22.07.73-6.98-.04-14.02.93-20.98-.32-.4-.97-1.19-1.29-1.59.15-5.48.33-10.97.09-16.45zM636.18 490.25c8.88-9.33 26.41-9.34 34.34 1.24 4.42 5.46 5.54 12.8 5.22 19.62.24 1.66-1.38 2.54-2.82 2.49-4.1.16-8.46.61-12.23-1.34-.24-4.57.44-10.21-3.64-13.37-3.97-2.25-8.6-.6-11.55 2.5-.59 22.56-.12 45.15-.16 67.73-.15 3.83.38 7.63 1.42 11.32 2.93 1.11 6.01 2.5 9.24 2.01 4.4-1.87 5.42-7.2 5.26-11.49-.24-8.85.43-17.74-.44-26.56-2.5-.11-4.98-.34-7.43-.79-.04-3.38-.76-7 .91-10.13-.41-.92-.8-1.83-1.18-2.74 6.56-1.2 13.28-.93 19.92-.72 2.71-.24 3.41 2.9 3.28 5 .02 12.65.01 25.31.04 37.97-.01 6.87-2.23 14.2-7.8 18.59-6.69 5.9-16.54 5.92-24.66 3.49-6.4-2.02-10.9-7.84-12.7-14.12-1.88-6.15-1.74-12.68-1.15-19.01-.69-16.94-.16-33.93-.46-50.89.05-7.31 1.33-15.3 6.59-20.8zM689.77 484.77c4.15-1.05 8.51-.35 12.76-.49.34 1.56.81 3.12.93 4.74.02 13.77-.03 27.56.08 41.33 5.32.04 10.65.02 15.97.03.17-13.8.01-27.6.01-41.4.04-1.56-.09-3.26 1-4.52 4.56-.99 9.33-.08 13.81 1.02.89 5.8 1.52 11.71.7 17.57-.63 3.63.31 7.27.21 10.92-.2 17.91.82 35.86-.53 53.75.7 8.91.87 17.95-.22 26.84a26.914 26.914 0 01-14.73-.29c-.87-6.09 1.12-12.13-.09-18.17.2-10.34.09-20.68.04-31.02-5.39-.06-10.77-.11-16.15.08-.05 14.26-.08 28.53.04 42.8.07 2.49-.53 4.92-1.33 7.26-4.41.29-8.95.94-13.28-.14-1.98-2.97-1.15-6.79-1.21-10.14.71-7.15.35-14.34.75-21.51 1.27-.4 2.53-.79 3.81-1.19-1.36-.52-2.7-1.01-4.04-1.51-.1-21.9-.33-43.84.39-65.75.27-3.36-1.09-7.29 1.08-10.21zM798.58 486.75c3.95-3.75 9.95-2.11 14.85-1.95 1.54 8.28.21 16.76 1 25.12-.06 14.71.14 29.43-.35 44.14-.99 6.2-.01 12.47-.4 18.71 1.08-4.51-.18-9.18.03-13.75.38-.71 1.15-.55 1.82-.52l-1.46.84c.08 5.52.7 11.17-.54 16.59-.16 6.08.52 12.24-.24 18.28-1.93 2.28-4.83 1.19-7.03.05-1.59 2.78-5.39 1.22-7.7.27-.04-3.84-.21-7.7.4-11.5-.88-12.3-.07-24.64-.4-36.96-.04-7.03 1.07-14.03.22-21.05.88-6.68-.13-13.46 1.09-20.1-.33-.36-1.01-1.07-1.34-1.42.07-5.59.41-11.18.05-16.75m10.62 11.59c.66.35.66.35 0 0zM458.56 485.48c4.49-.09 9.12-.79 13.54.26 1.44 1.75 1.27 4.09 1.06 6.21-.97 7.99-.7 16.08.06 24.08.39 17.31.17 34.63.16 51.95-.07 4.26.2 8.55-.41 12.79.03 4.56 1.65 9.89-.91 13.98-3.94 1.51-8.45.64-12.61.86-1.84-4.66-.77-9.75-1.21-14.61.1-22.34.07-44.7.01-67.05-.16-1.35.46-2.52 1.18-3.6-.24-.23-.71-.7-.95-.93-1.36-6.81.12-13.65-.66-20.47.19-1.17.44-2.33.74-3.47zM742.89 487c1.69-1.46 4.02-1.41 6.13-1.48 11.66-.15 23.32-.36 34.98-.61 2.12-.05 4.25.23 6.35.59-.03 4.24 1.86 9.8-1.68 13.07-3.89.68-7.91.44-11.81-.04-.62.96-.99 2.05-1.39 3.12-.09-1.06-.37-2.16-1.54-2.38 1.87 14.83-.24 29.87 1.29 44.74-.96 15.3-.86 30.68.08 45.98.1 1.83.01 4.6-2.33 4.93-4.18.5-8.58 1.02-12.68-.24.39-11.28-1.68-22.58-.09-33.84-.88-6.9-.4-13.87-.52-20.8.07-3.78-.53-7.68.92-11.28-.25-.4-.76-1.2-1.01-1.6-.14-7.05-.63-14.08-.33-21.13.16-2.29-.3-4.54-.81-6.76-4.89.32-9.79-.06-14.67.3-1.02-4.07-1.88-8.41-.89-12.57zM827.16 487.95c-.22-1.74.85-3.62 2.83-3.38 9.34-.36 18.68.36 28.02.09 2.43.12 5.25-.45 7.29 1.26.99 4.07.59 8.36.06 12.48-7.18.41-14.38-.31-21.55.3-2.84 8.5-.93 17.58-1.46 26.36.15 1.69-.89 4.29 1.33 5.01 3.39.67 6.88.26 10.31.08 1.51.16 3.02.04 4.5-.4 3.4 1.37 2.71 5.25 2.72 8.21-.06 1.95-.44 3.89-.88 5.8-5.92.68-11.88.27-17.8.78.57 8.49-.71 16.97-.08 25.46.44 7.38-.43 14.87.9 22.18-3.73 3.35-8.98 2.32-13.53 2.01-1.6-.1-1.78-1.88-1.99-3.08-.3-3.27-.13-6.56-.22-9.83.87-.32 1.75-.62 2.64-.91-.46-.26-1.37-.77-1.83-1.02-2.07-10.41.88-21.09-.72-31.48.3-.8.61-1.59.94-2.37-1.9-4.26-.74-9-1.09-13.49-.8-8.69.56-17.41-.19-26.11-.06-5.99-.16-11.97-.2-17.95zM871.63 485.59c3.82-.54 7.81-.66 11.61.06 1.92 1.49 2.25 4.05 2.68 6.29 2.78 15.26 6.59 30.33 9.15 45.63 2.2-3.4 2.09-7.63 2.97-11.46 2.49-12.95 4.62-25.98 7.4-38.86 1.08-3.52 5.72-2.51 8.56-2.74 2.07.21 5.85-.52 6.19 2.4-1.99 9.76-4.65 19.38-6.96 29.07-1.09 7.46-3.21 14.7-4.86 22.04-2.03 8.89-5.03 17.75-4.71 26.98.03 8.67.04 17.33.03 26-.16 1.5.23 3.5-1.4 4.34-3.89.66-7.86.17-11.77.25-1.51-4.02-1.76-8.35-1.79-12.6-.05-6.67-.19-13.33-.16-20 .12-5.16-1.83-10.02-2.9-14.99-4.02-15.87-8.15-31.71-12.21-47.56-.99-4.51-2.58-8.93-2.84-13.56.26-.32.76-.97 1.01-1.29zM231.68 499.59c2.97-1.12 6.2-3.42 9.41-1.71 25.09 10.25 50.09 20.74 75.19 30.95 1.27.43 2.27 1.34 2.97 2.47-26.16 10.9-52.38 21.64-78.56 32.48-1.44.72-3.07.74-4.49-.01-11.85-4.73-23.68-9.52-35.56-14.17-1.78-.68-3.39-1.72-4.88-2.88 3.71.06 7 1.87 10.37 3.17 10.06 3.98 20.11 7.97 30.17 11.96 1.4.68 3.01.78 4.41.02 25.08-10.36 50.12-20.83 75.28-31.01-25.59-11.03-51.57-21.16-77.17-32.16-21.12 8.52-42.11 17.33-63.17 25.97-4.63 2.21-9.78 3.38-14.03 6.34 8.13 3.34 16.2 6.82 24.37 10.06 1.56.51 2.79 1.59 3.67 2.97-2.26-.48-4.46-1.2-6.57-2.12-7.94-3.5-16.05-6.62-24.01-10.07-1.4-.34-1.04-2.4.41-2.39 24.01-10.06 48.15-19.84 72.19-29.87z" />
    <path fill="#171717"
        d="M235.12 524.95c1.59-.81 3.35-.72 5.04-.28-13.71 6.17-27.98 11.03-41.82 16.9-3.56 1.6-6.21 5.34-5.93 9.33-.05 12.7.05 25.41-.02 38.12.23 4.5-3.63 9.06-8.3 8.74-9.22-.04-18.46.35-27.66-.27.97-.9 2.15-1.41 3.5-1.27 8.04-.19 16.1.2 24.14-.13 3.29.02 6.43-2.59 6.35-6.02.25-13.35-.09-26.71.15-40.05.17-5.02 4.18-9.11 8.69-10.79 11.97-4.73 23.94-9.44 35.86-14.28z" />
    <path fill="#171717"
        d="M197.59 553.37l1.92-.04c.02 9.87-.08 19.75.06 29.63 18.49 14.56 45.28 17.12 66.45 7.12 3.45-1.46 6.38-4.3 10.26-4.56-3.81 3.87-8.94 5.96-13.85 8.04-21.33 8-47.3 4.87-64.84-10.14.02-10.02.01-20.03 0-30.05zM277.52 553.37h1.92c.03 11.56-.08 23.12.04 34.67-.28 4.17 3.36 7.75 7.43 7.95 6.34.51 12.72.06 19.08.21 4.87.24 9.93-.74 14.65.85-3.12.98-6.42.77-9.64.77-7.68-.07-15.36.03-23.04-.02-5.73.49-10.9-5.08-10.44-10.72.01-11.24.03-22.47 0-33.71z" />
</svg>